<svg id="Capa_1" enable-background="new 0 0 511.86 511.86" height="512" viewBox="0 0 511.86 511.86" width="512" xmlns="http://www.w3.org/2000/svg"><path d="m473.781 361.35v32.234l-127.282 55.046c-30.298 11.04-62.296 16.688-94.544 16.688-34.225 0-68.152-6.362-100.052-18.762l-113.978-52.973v-32.233z" fill="#5d95c9"/><path d="m37.925 307.389h435.856v53.905h-435.856z" fill="#feef81"/><path d="m331.713 46.542h-151.566l-172.647 142.479v61.907l30.425 56.212h436.01l30.425-56.212v-61.907z" fill="#fff"/><path d="m171.904 446.556-113.979-52.973v-32.233h-20v32.234l113.978 52.973c31.9 12.4 65.827 18.762 100.052 18.762 3.354 0 6.704-.076 10.051-.198-30.838-1.112-61.297-7.368-90.102-18.565z" fill="#2170a9"/><path d="m37.925 307.389h20v53.905h-20z" fill="#fee94f"/><path d="m27.5 189.021 172.647-142.479h-20l-172.647 142.479v61.907l30.425 56.212h20l-30.425-56.212z" fill="#e6fbfd"/><path d="m511.86 185.485-177.455-146.445h-156.949l-177.456 146.445v67.345l30.43 56.21v89.324c2.819 1.311 118.062 54.892 118.753 55.186 63.72 24.771 134.766 25.854 199.884 2.127l132.213-57.169v-89.191l30.58-56.487zm-15 63.545-27.398 50.61h-48.012v15.25h44.83v38.9h-338.83v15.06h338.83v19.802l-122.554 53.006c-61.85 22.479-128.957 21.232-188.885-2.002l-109.411-50.86v-19.946h67.02v-15.06h-67.02v-38.9h361.02v-15.25h-364.052l-27.398-50.61v-56.476l167.846-138.514h146.169l167.845 138.515z"/><path d="m292.94 238.413-29.44 14.737v-60.679h27.364v-15h-27.364v-22.371c14.014-3.383 24.456-16.028 24.456-31.066 0-17.621-14.335-31.956-31.956-31.956s-31.956 14.335-31.956 31.956c0 15.038 10.442 27.683 24.456 31.066v22.371h-27.364v15h27.364v60.679l-29.44-14.737v-26.932h-15v36.198l51.94 26 51.939-26v-36.198h-15v26.932zm-53.896-114.379c0-9.35 7.606-16.956 16.956-16.956 9.349 0 16.956 7.606 16.956 16.956 0 9.349-7.606 16.956-16.956 16.956-9.349 0-16.956-7.607-16.956-16.956z"/><path d="m251.956 442.818v-15c27.594 0 54.747-4.73 80.706-14.06l12.661-5.476 5.954 13.768-13.31 5.741c-27.662 9.971-56.6 15.027-86.011 15.027zm113.088-26.722-5.954-13.768 13.768-5.954 5.954 13.768zm27.535-11.908-5.954-13.768 13.768-5.954 5.954 13.768z" fill="#fff"/></svg>