<?xml version="1.0" encoding="iso-8859-1"?>
<!-- Generator: Adobe Illustrator 18.0.0, SVG Export Plug-In . SVG Version: 6.00 Build 0)  -->
<!DOCTYPE svg PUBLIC "-//W3C//DTD SVG 1.1//EN" "http://www.w3.org/Graphics/SVG/1.1/DTD/svg11.dtd">
<svg version="1.1" id="Capa_1" xmlns="http://www.w3.org/2000/svg" xmlns:xlink="http://www.w3.org/1999/xlink" x="0px" y="0px"
	 viewBox="0 0 450.369 450.369" style="enable-background:new 0 0 450.369 450.369;" xml:space="preserve">
<g>
	<path d="M449.265,149.245c3.942-29.235-2.684-50.318-19.695-62.662c-37.318-27.077-120.823-8.712-255.289,56.147
		c-65.898,31.786-107.378,59.992-130.571,78.057c-20.99,16.349-45.593,38.773-43.595,52.759
		c1.914,13.395,20.541,15.651,34.387,16.184c8.379,0.323,16.567-0.046,21.64-0.378l3.146,21.631c0.771,5.296,3.58,9.944,7.91,13.089
		c3.405,2.472,7.403,3.763,11.521,3.763c1.126,0,2.26-0.097,3.394-0.291c14.904-2.563,43.604-6.631,70.846-5.651
		c48.597,35.803,119.987,53.966,212.277,53.966c12.844,0,23.724-0.324,32.465-0.584c5.424-0.161,9.707-0.289,12.839-0.289
		c12.891,0,18.012-5.616,20.038-10.328c6.675-15.517-13.668-41.178-27.74-56.35l-4.868-70.053
		C407.708,227.655,444.349,185.697,449.265,149.245z M58.431,260.288c-3.586,1.051-5.852,4.58-5.313,8.276l0.856,5.889
		c-4.102,0.245-9.916,0.483-15.966,0.371c-16.138-0.303-21.419-2.796-22.855-3.748c1.307-4.019,10.332-17.466,40.388-40.473
		c22.467-17.198,62.436-44.061,125.258-74.363C339.287,79.794,398.77,82.769,420.761,98.724
		c12.369,8.976,16.831,24.846,13.639,48.517c-4.158,30.827-36.609,68.816-46.613,79.897c-1.185-0.246-2.573-0.52-4.163-0.814
		c1.197-4.56,1.909-9.429,2.11-14.544c0.549-13.991-2.972-27.055-9.911-36.782c-7.697-10.789-19.292-17.02-32.647-17.543
		c-27.867-1.097-50.873,21.283-51.999,50.001c-0.175,4.47,0.201,8.875,1.083,13.135C221.161,222.303,142.561,235.637,58.431,260.288
		z M370.745,211.192c-1.02,25.997-16.641,35.222-29.708,35.221c-0.445,0-0.896-0.009-1.35-0.026
		c-9.276-0.363-17.867-4.508-24.189-11.67c-6.409-7.26-9.724-16.732-9.334-26.673c0.783-19.978,16.201-35.626,35.1-35.626
		c0.439,0,0.881,0.008,1.323,0.025C357.336,173.021,371.763,185.227,370.745,211.192z M155.785,307.002l0-0.009
		c-29.285-1.345-60.321,3.034-76.216,5.767c-1.257,0.219-2.525-0.077-3.56-0.827c-1.028-0.747-1.695-1.852-1.879-3.109
		l-5.229-35.954c82.563-23.713,159.505-36.278,228.889-37.388c1.81,3.253,3.961,6.329,6.462,9.162
		c9.061,10.264,21.437,16.206,34.847,16.731c0.651,0.025,1.298,0.038,1.938,0.038c0.001,0,0,0,0.001,0
		c13.048,0,24.263-5.154,32.429-14.905c1.563-1.867,2.976-3.874,4.252-5.997c2.105,0.358,3.915,0.694,5.439,0.995l2.509,36.106
		c-8.721-0.484-27.979-1.326-56.358-1.326c-0.769,0-1.545,0-2.327,0.002c-37.183,0.06-96.95,1.668-170.53,8.988
		c-4.122,0.41-7.131,4.084-6.721,8.205c0.385,3.87,3.646,6.759,7.454,6.759c0.248,0,0.499-0.013,0.751-0.038
		c125.108-12.446,211.632-8.494,228.779-7.499l0.871,12.532c-23.303,3.601-58.358,5.425-104.392,5.425
		c-63.864,0-126.593-3.623-127.219-3.66C155.912,306.994,155.849,307.005,155.785,307.002z M182.924,323.328
		c24.528,1.052,62.193,2.33,100.271,2.33c35.824,0,65.233-1.108,87.887-3.301l17.336,38.174c-6.81,0.177-14.549,0.328-23.184,0.328
		C288.938,360.859,227.783,348.251,182.924,323.328z M416.798,358.731c-0.089,0.206-1.534,1.255-6.259,1.255
		c-1.686,0-3.631,0.033-5.853,0.087l-17.962-39.552c2.116-0.3,4.158-0.612,6.108-0.938
		C412.406,340.969,418.17,355.541,416.798,358.731z"/>
	<path d="M339.517,225.406c-13.524-4.733-9.185-27.639-9.124-27.944c0.813-4.053-1.806-8.002-5.858-8.826
		c-4.068-0.828-8.021,1.795-8.845,5.854c-0.071,0.35-1.729,8.674-0.596,18.022c0.708,5.843,2.353,10.948,4.889,15.175
		c3.414,5.69,8.319,9.686,14.579,11.877c0.819,0.287,1.655,0.423,2.478,0.423c3.099,0,5.997-1.935,7.079-5.024
		C345.486,231.054,343.427,226.775,339.517,225.406z"/>
</g>
<g>
</g>
<g>
</g>
<g>
</g>
<g>
</g>
<g>
</g>
<g>
</g>
<g>
</g>
<g>
</g>
<g>
</g>
<g>
</g>
<g>
</g>
<g>
</g>
<g>
</g>
<g>
</g>
<g>
</g>
</svg>
